<?xml version="1.0" encoding="UTF-8" standalone="no"?>
<!-- Created with Inkscape (http://www.inkscape.org/) -->
<svg id="svg2" xmlns="http://www.w3.org/2000/svg" height="671.52" width="753.12" version="1.0">
 <g id="g1875" fill-rule="evenodd" transform="matrix(1.1181 0 0 1.1181 -44.484 -39.664)">
  <path id="path6" d="m71.986 631.53c-11.433 0-21.997-6.1-27.713-16s-5.716-22.1 0-32l304.58-527.54c5.71-9.9 16.28-15.999 27.71-15.999s22 6.099 27.71 16l304.58 527.54c5.71 9.9 5.71 22.1 0 32-5.72 9.9-16.28 16-27.72 16h-609.14z" stroke="#000" stroke-width="2" fill="#fff"/>
  <path id="path8" fill="#c00" d="m71.986 619.53c-7.146 0-13.748-3.81-17.321-10s-3.573-13.81 0-20l304.58-527.54c3.57-6.187 10.17-9.999 17.32-9.999s13.75 3.812 17.32 10l304.57 527.54c3.58 6.19 3.58 13.81 0 20-3.57 6.19-10.17 10-17.32 10h-609.14zm69.284-60l235.29-407.54 235.29 407.54h-470.58z"/>
 </g>
 <g id="layer1" transform="matrix(.72452 0 0 .72452 242.96 312.68)">
  <g id="g2285" transform="matrix(1.6788 0 0 1.6788 -1258.5 -55.289)">
   <path id="path2251" d="m1009.2 214.28h-230.69c-10.88 0-23.86-17.1-23.86-28.23-0.24-18.83 0.66-37.08 1.27-55.49 2.93-20.98 10.99-40.168 18.98-59.383 1.96-4.017 4.32-7.941 9.11-7.941h83.6c7.6 3.422 15.81 6.031 19.27 14.895 23.99 59.059 71.4 87.289 125.72 97.249l0.1 35.75c0 1.41-2 3.15-3.5 3.15z" fill-rule="evenodd"/>
   <path id="path2253" d="m793.88 37.031c-3.16 0-3.06 6.125 0 6.125h13.59c11.49 4.644 18.28 11.247 21.44 20.125h5.21v-0.031h5.16c3.16-8.878 9.95-15.45 21.44-20.094h13.28c3.28 0 2.78-6.125 0-6.125h-80.12zm27.65 6.125h25.06c-5.4 4.551-11.25 9.179-11.25 16.282h-1.22-1.28c0-7.125-5.89-11.717-11.31-16.282z" fill-rule="evenodd"/>
   <path id="path2260" d="m770.43 114.14h105.09c2.55 0 3.5-5.28 2.3-8.57-3.8-10.144-8.43-29.966-13.68-29.966h-80.79c-4.38 0-10.22 20.142-15.33 30.216-1.01 4-0.01 8.32 2.41 8.32z" fill-rule="evenodd" fill="#fff"/>
   <path id="path2265" d="m787.98 164.94c0 5.3-4.29 9.6-9.59 9.6-5.31 0-9.6-4.3-9.6-9.6s4.29-9.6 9.6-9.6c5.3 0 9.59 4.3 9.59 9.6z" transform="translate(1.5481 -.61924)" fill="#fff"/>
   <path id="path2267" d="m787.98 164.94c0 5.3-4.29 9.6-9.59 9.6-5.31 0-9.6-4.3-9.6-9.6s4.29-9.6 9.6-9.6c5.3 0 9.59 4.3 9.59 9.6z" transform="translate(80.811 -.61924)" fill="#fff"/>
   <path id="path2271" d="m913.61 136.36v34.92l-15.98-7.34c-1.52-14.73-1.66-29.75-1.75-44.77 5.91 5.73 12.25 13.59 17.73 17.19z" fill-rule="evenodd" fill="#fff"/>
   <path id="path2273" d="m937.81 155.41l0.23 26.87-15.28-6.4c-0.36-14.74 0.09-16.34-0.01-31.37 6.61 5.62 9.34 6.72 15.06 10.9z" fill-rule="evenodd" fill="#fff"/>
   <path id="path2275" d="m945.69 160.18v23.99c4.38 2.35 9.45 3.6 14.93 4.2v-22.09l-14.93-6.1z" fill-rule="evenodd" fill="#fff"/>
   <path id="path2277" d="m966.8 169.25v20.93c3.83 1.49 7.82 1.97 11.87 2.15v-20.03l-11.87-3.05z" fill-rule="evenodd" fill="#fff"/>
   <path id="path2279" d="m984.77 174.36v18.79c3.14 0.88 6.36 1.37 9.73 1.16v-18.06l-9.73-1.89z" fill-rule="evenodd" fill="#fff"/>
   <path id="path2281" d="m999.69 177.24v17.81l7.81 1.32v-18.06l-7.81-1.07z" fill-rule="evenodd" fill="#fff"/>
   <path id="path2283" d="m754.66 229.21h19.93v-9.98h30.04v9.86h44v-9.89h164.07v10.04c-46.21 1.69-93.32 3.01-117.79 14.03h-140.28l0.03-14.06z" fill-rule="evenodd"/>
  </g>
 </g>
</svg>
